<?xml version="1.0"?><svg width="640" height="480" xmlns="http://www.w3.org/2000/svg">
 <title>queen crown</title>
 <defs>
  <clipPath clipPathUnits="userSpaceOnUse" id="clipPath37527">
   <path id="path37529" d="m1555.891968,1355.892334c1.446045,13.312378 3.634399,27.198242 7.57312,40.336548c6.263794,20.893311 16.633301,40.478638 34.97876,49.341309c13.292358,6.421631 27.227295,-0.241211 38.58374,-8.412109c7.548828,-5.431152 14.086548,-11.872314 19.968506,-18.138794c-0.961548,11.985596 -1.63562,24.50293 -0.264526,36.664307c1.839722,16.31604 7.56958,32.67981 21.700195,41.44458c12.11084,7.512085 25.04187,8.093628 36.562866,4.466797c1.684692,-0.530151 3.254883,-1.337769 4.88147,-2.022583c-7.08313,9.987305 -12.61377,18.799683 -16.001587,25.620728c-2.461792,4.957031 -3.90918,8.790771 -5.006836,12.077759l-327.851074,-43.182495c-0.011963,-10.395874 -1.350708,-19.803223 -4.256226,-29.317627c-1.456177,-4.769409 -3.381226,-9.737061 -5.522095,-14.892334c3.625244,2.534912 7.191406,4.704346 10.737549,6.118164c10.315674,4.112549 19.907471,3.153442 29.228149,1.583862c7.995239,-1.346436 14.576416,-6.346558 19.484131,-12.44165c4.890747,-6.073486 8.465454,-13.363403 11.394409,-21.0448c3.944824,-10.345947 6.529297,-21.434082 8.431641,-31.603638c4.530273,7.72522 9.957153,15.825439 16.697754,22.791626c10.155884,10.495605 24.019531,18.860107 39.825317,15.168213c18.581177,-4.339844 32.195435,-20.370117 42.647827,-38.513062c6.557129,-11.381592 11.758179,-23.874023 16.206909,-36.0448z" stroke-width="3.155635" stroke="#ececec" fill="none"/>
  </clipPath>
 </defs>
 <metadata id="metadata37552">image/svg+xml</metadata>
 <g>
  <title>Layer 1</title>
  <g id="layer1">
   <path stroke-width="4" stroke="#ff7f00" d="m348.846985,109.346001c0,0 -24.165985,30.555 -10.062988,55.749992c-8.362,-5.981995 -20.279999,-13.214996 -29.062012,-13.311996c-30.709991,-0.338989 -8.266998,42.781006 2.375,27.656006c-7.572998,-11.811005 15.596008,-16.714996 21.843018,-4.686996c3.529999,6.793991 -20.958008,25.903992 -8.218018,24.311996c12.738007,-1.591003 14.25,-10.156006 14.25,-10.156006l4.406006,10.625c-5.816986,32.735001 -18.755981,77.651001 -46.5,87.25c-22.362976,7.737 -45.028992,-17.182983 -57.218994,-33.875l0.875,-12.030991c0,0 4.003006,7.597992 16.562988,4.905991c12.559021,-2.692001 -16.685989,-12.688995 -15.499985,-20.280991c2.098999,-13.44101 25.641006,-16.642014 22.218002,-2.969009c14.865997,10.806 22.423004,-37.253998 -6.531006,-26.813004c-8.632996,3.114014 -17.591003,14.236008 -23.593994,22.782013c5.334,-28.251999 -26.843002,-50.219009 -26.843002,-50.219009c0,0 -13.179001,37.229004 8.593002,56.344009c-9.867004,-2.996002 -23.466003,-6.274002 -32.093002,-3.375c-29.167999,9.799988 5.723007,43.319992 11,25.5c-10.910004,-8.682007 9.337006,-20.979004 19.061996,-11.657013c5.492996,5.267014 -11.643997,31.423996 -0.093994,25.719009c11.550995,-5.705002 10.375,-14.281006 10.375,-14.281006l7.188004,8.281006c-0.182007,22.980011 -3.815002,61.93399 -24.032013,67.625c-17.202988,4.842987 -28.356995,5.921997 -56.780991,-17.125l-1.781006,-5.937012c0,0 7.156998,4.641022 17.031006,-3.718994c9.875,-8.359985 -20.541,-3.283997 -22.969009,-10.562988c-4.29599,-12.889008 15.048004,-26.595001 18.282013,-12.875c18.093994,2.479004 2.604996,-43.767014 -18.219009,-20.750015c-6.158997,6.807999 -8.871002,20.789017 -10.280991,31.188004c-8.05201,-28.123001 -49.406708,-30.718994 -49.406708,-30.718994c23.639702,22.996002 33.838699,26.437012 62.843704,58.75c20.998993,30.290009 28.968002,41.932983 30.468994,66.718994l343.593994,0.593994c0,0 -1.893005,-21.957977 38.093018,-75.031982c23.982971,-25.598999 34.362976,-30.234009 56.062988,-51.343002c0,0 -41.35498,2.595993 -49.406006,30.718002c-1.411011,-10.39801 -4.122986,-24.378998 -10.281982,-31.187012c-20.822998,-23.016998 -36.312012,23.229004 -18.218018,20.75c3.233032,-13.721008 22.578003,-0.014008 18.281006,12.875c-2.427979,7.278992 -32.843018,2.201996 -22.968994,10.562012c9.875,8.359985 17.062988,3.718994 17.062988,3.718994l-2.437988,8.031006c-17.929016,15.819 -34.588989,27.868988 -55.812012,18.968994c-22.911987,-9.606995 -24.914001,-43.403992 -25.968994,-71.186996l7.281006,-8.344009c0,0 -1.175995,8.576004 10.375,14.281006c11.550995,5.704987 -5.587006,-20.451996 -0.093994,-25.719009c9.725006,-9.321991 29.972961,2.975006 19.062988,11.657013c5.276001,17.819992 40.16803,-15.700012 11,-25.5c-8.626984,-2.899002 -22.257996,0.378998 -32.125,3.375c21.77301,-19.115005 8.625,-56.344009 8.625,-56.344009c0,0 -32.177002,21.96701 -26.843994,50.219009c-6.002991,-8.546005 -14.960999,-19.667999 -23.593994,-22.782013c-28.95401,-10.440994 -21.395996,37.619003 -6.531006,26.813004c-3.423004,-13.673004 20.087006,-10.472 22.187012,2.969009c1.185974,7.591995 -28.028015,17.588989 -15.468018,20.280991c12.55899,2.692001 16.562012,-4.905991 16.562012,-4.905991l0.75,10.625c-11.532013,16.352982 -33.252014,42.42598 -51.125,36.936996c-30.846008,-9.473999 -45.132019,-56.020996 -51.5,-89.406006l4.093994,-9.968994c0,0 1.51001,8.565002 14.25,10.155991c12.738983,1.59201 -11.748016,-17.51799 -8.218994,-24.311996c6.247986,-12.026993 29.415985,-7.154999 21.843994,4.656006c10.641998,15.125 33.083984,-27.964005 2.375,-27.625c-8.990997,0.098999 -21.242004,7.692993 -29.625,13.75c14.063995,-24.986008 -9.468994,-56.344002 -9.468994,-56.344002l0.000977,0l0,0z" id="path37379" fill="#ff7f00"/>
   <rect id="rect37397" width="343.57831" height="24.161131" x="176.0428" y="389.45599" fill="#ff7f00" opacity="0.937743" stroke="#ff7f00"/>
  </g>
 </g>
</svg>